[Header]
FileType HTR
DataType HTRS
FileVersion 1
NumSegments 64
NumFrames 4
DataFrameRate 24
EulerRotationOrder ZYX
CalibrationUnits mm
RotationUnits Degrees
GlobalAxisofGravity Y
BoneLengthAxis Y
ScaleFactor 1.0
[SegmentNames&Hierarchy]
Hips	GLOBAL
Spine	Hips
Spine1	Spine
Spine2	Spine1
Neck	Spine2
Head	Neck
LeftEye	Head
RightEye	Head
LeftShoulder	Spine2
LeftArm	LeftShoulder
LeftForeArm	LeftArm
LeftHand	LeftForeArm
LeftHandThumb1	LeftHand
LeftHandThumb2	LeftHandThumb1
LeftHandThumb3	LeftHandThumb2
LeftHandThumb4	LeftHandThumb3
LeftHandIndex1	LeftHand
LeftHandIndex2	LeftHandIndex1
LeftHandIndex3	LeftHandIndex2
LeftHandIndex4	LeftHandIndex3
LeftHandMiddle1	LeftHand
LeftHandMiddle2	LeftHandMiddle1
LeftHandMiddle3	LeftHandMiddle2
LeftHandMiddle4	LeftHandMiddle3
LeftHandRing1	LeftHand
LeftHandRing2	LeftHandRing1
LeftHandRing3	LeftHandRing2
LeftHandRing4	LeftHandRing3
LeftHandPinky1	LeftHand
LeftHandPinky2	LeftHandPinky1
LeftHandPinky3	LeftHandPinky2
LeftHandPinky4	LeftHandPinky3
RightShoulder	Spine2
RightArm	RightShoulder
RightForeArm	RightArm
RightHand	RightForeArm
RightHandPinky1	RightHand
RightHandPinky2	RightHandPinky1
RightHandPinky3	RightHandPinky2
RightHandPinky4	RightHandPinky3
RightHandRing1	RightHand
RightHandRing2	RightHandRing1
RightHandRing3	RightHandRing2
RightHandRing4	RightHandRing3
RightHandMiddle1	RightHand
RightHandMiddle2	RightHandMiddle1
RightHandMiddle3	RightHandMiddle2
RightHandMiddle4	RightHandMiddle3
RightHandIndex1	RightHand
RightHandIndex2	RightHandIndex1
RightHandIndex3	RightHandIndex2
RightHandIndex4	RightHandIndex3
RightHandThumb1	RightHand
RightHandThumb2	RightHandThumb1
RightHandThumb3	RightHandThumb2
RightHandThumb4	RightHandThumb3
LeftUpLeg	Hips
LeftLeg	LeftUpLeg
LeftFoot	LeftLeg
LeftToeBase	LeftFoot
RightUpLeg	Hips
RightLeg	RightUpLeg
RightFoot	RightLeg
RightToeBase	RightFoot
[BasePosition]
Hips	0	0	0	0	0	0	1
Spine	0	0	0	0	0	0	1
Spine1	0	0	0	0	0	0	1
Spine2	0	0	0	0	0	0	1
Neck	0	0	0	0	0	0	1
Head	0	0	0	0	0	0	1
LeftEye	0	0	0	0	0	0	1
RightEye	0	0	0	0	0	0	1
LeftShoulder	0	0	0	0	0	0	1
LeftArm	0	0	0	0	0	0	1
LeftForeArm	0	0	0	0	0	0	1
LeftHand	0	0	0	0	0	0	1
LeftHandThumb1	0	0	0	0	0	0	1
LeftHandThumb2	0	0	0	0	0	0	1
LeftHandThumb3	0	0	0	0	0	0	1
LeftHandThumb4	0	0	0	0	0	0	1
LeftHandIndex1	0	0	0	0	0	0	1
LeftHandIndex2	0	0	0	0	0	0	1
LeftHandIndex3	0	0	0	0	0	0	1
LeftHandIndex4	0	0	0	0	0	0	1
LeftHandMiddle1	0	0	0	0	0	0	1
LeftHandMiddle2	0	0	0	0	0	0	1
LeftHandMiddle3	0	0	0	0	0	0	1
LeftHandMiddle4	0	0	0	0	0	0	1
LeftHandRing1	0	0	0	0	0	0	1
LeftHandRing2	0	0	0	0	0	0	1
LeftHandRing3	0	0	0	0	0	0	1
LeftHandRing4	0	0	0	0	0	0	1
LeftHandPinky1	0	0	0	0	0	0	1
LeftHandPinky2	0	0	0	0	0	0	1
LeftHandPinky3	0	0	0	0	0	0	1
LeftHandPinky4	0	0	0	0	0	0	1
RightShoulder	0	0	0	0	0	0	1
RightArm	0	0	0	0	0	0	1
RightForeArm	0	0	0	0	0	0	1
RightHand	0	0	0	0	0	0	1
RightHandPinky1	0	0	0	0	0	0	1
RightHandPinky2	0	0	0	0	0	0	1
RightHandPinky3	0	0	0	0	0	0	1
RightHandPinky4	0	0	0	0	0	0	1
RightHandRing1	0	0	0	0	0	0	1
RightHandRing2	0	0	0	0	0	0	1
RightHandRing3	0	0	0	0	0	0	1
RightHandRing4	0	0	0	0	0	0	1
RightHandMiddle1	0	0	0	0	0	0	1
RightHandMiddle2	0	0	0	0	0	0	1
RightHandMiddle3	0	0	0	0	0	0	1
RightHandMiddle4	0	0	0	0	0	0	1
RightHandIndex1	0	0	0	0	0	0	1
RightHandIndex2	0	0	0	0	0	0	1
RightHandIndex3	0	0	0	0	0	0	1
RightHandIndex4	0	0	0	0	0	0	1
RightHandThumb1	0	0	0	0	0	0	1
RightHandThumb2	0	0	0	0	0	0	1
RightHandThumb3	0	0	0	0	0	0	1
RightHandThumb4	0	0	0	0	0	0	1
LeftUpLeg	0	0	0	0	0	0	1
LeftLeg	0	0	0	0	0	0	1
LeftFoot	0	0	0	0	0	0	1
LeftToeBase	0	0	0	0	0	0	1
RightUpLeg	0	0	0	0	0	0	1
RightLeg	0	0	0	0	0	0	1
RightFoot	0	0	0	0	0	0	1
RightToeBase	0	0	0	0	0	0	1
[Hips]
1	1.813223362	836.4077759	11.64610386	-5.004441738	-2.547985792	-4.010204315	1.0
2	3.532052517	824.6824951	8.97154808	-5.854238033	-2.751995325	-3.726067066	1.0
3	3.178213835	844.4354858	6.670313835	-6.284412384	-2.941487551	-2.650082827	1.0
4	2.421829462	870.1606445	4.462094784	-6.613957405	-3.124276161	-1.429920197	1.0
[Spine]
1	9.234152094e-05	101.8158798	1.31520927	7.594661713	0.517303288	6.600923061	1.0
2	9.234152094e-05	101.8158798	1.31520927	8.702652931	0.6226388812	6.273472786	1.0
3	9.234152094e-05	101.8158798	1.31520927	8.54123497	0.888902247	5.164181232	1.0
4	9.234152094e-05	101.8158798	1.31520927	8.126996994	1.183384418	3.913723946	1.0
[Spine1]
1	2.519402869e-06	100.8345108	-10.00804329	-4.002598763	0.1493348926	2.98529768	1.0
2	2.519402869e-06	100.8345108	-10.00804329	-3.91646862	0.2076342106	2.995319366	1.0
3	2.519402869e-06	100.8345108	-10.00804329	-3.918383598	0.2518828809	2.835487127	1.0
4	2.519402869e-06	100.8345108	-10.00804329	-3.939226151	0.2928452194	2.645859003	1.0
[Spine2]
1	3.4574864e-06	91.00010681	-13.73417091	-4.019695282	-0.5423207283	0.02226381563	1.0
2	3.4574864e-06	91.00010681	-13.73417091	-3.936722517	-0.4804565907	0.0329393819	1.0
3	3.4574864e-06	91.00010681	-13.73417091	-3.940039396	-0.4286819398	-0.1277223527	1.0
4	3.4574864e-06	91.00010681	-13.73417091	-3.96194315	-0.3795742989	-0.3184526265	1.0
[Neck]
1	6.334285445e-06	166.7166901	-25.16167831	8.929481506	-0.009263517335	-1.266134977	1.0
2	6.334285445e-06	166.7166901	-25.16167831	8.757506371	-0.03677333146	-1.255377889	1.0
3	6.334285445e-06	166.7166901	-25.16167831	8.754545212	-0.02472108416	-1.143111229	1.0
4	6.334285445e-06	166.7166901	-25.16167831	8.783304214	-0.004979081918	-1.01268518	1.0
[Head]
1	-4.242318937e-06	96.17874908	16.85007477	6.798692703	0.08173400164	-4.495083332	1.0
2	-4.242318937e-06	96.17874908	16.85007477	6.467242241	-0.4662717581	-4.380826473	1.0
3	-4.242318937e-06	96.17874908	16.85007477	6.967020512	-0.3824746013	-4.068938732	1.0
4	-4.242318937e-06	96.17874908	16.85007477	7.615394592	-0.1751538366	-3.726587296	1.0
[LeftEye]
1	30.67560577	64.09507751	92.83554077	0	0	0	1.0
2	30.67560577	64.09507751	92.83554077	0	0	0	1.0
3	30.67560577	64.09507751	92.83554077	0	0	0	1.0
4	30.67560577	64.09507751	92.83554077	0	0	0	1.0
[RightEye]
1	-30.67550468	64.09500122	92.83547211	0	0	0	1.0
2	-30.67550468	64.09500122	92.83547211	0	0	0	1.0
3	-30.67550468	64.09500122	92.83547211	0	0	0	1.0
4	-30.67550468	64.09500122	92.83547211	0	0	0	1.0
[LeftShoulder]
1	45.70446396	109.4598465	-26.27988052	12.36304855	-10.06516552	17.48643494	1.0
2	45.70446396	109.4598465	-26.27988052	11.92534828	-10.00057697	18.1579895	1.0
3	45.70446396	109.4598465	-26.27988052	11.5367775	-10.03649235	16.85887337	1.0
4	45.70446396	109.4598465	-26.27988052	11.16762066	-10.09580421	15.20963287	1.0
[LeftArm]
1	105.9236984	-5.245829105	-22.32120132	-61.06415939	1.498821497	20.80002022	1.0
2	105.9236984	-5.245829105	-22.32120132	-58.87790298	-0.2306929976	21.95877266	1.0
3	105.9236984	-5.245829105	-22.32120132	-57.68891907	-1.462205529	23.02279663	1.0
4	105.9236984	-5.245829105	-22.32120132	-56.69575119	-2.568409443	24.05194664	1.0
[LeftForeArm]
1	278.4151917	-0.0008942864952	0.0003745891154	-25.23519325	-18.96464157	3.610254765	1.0
2	278.4151917	-0.0008942864952	0.0003745891154	-24.87891579	-15.68050957	3.177301645	1.0
3	278.4151917	-0.0008942864952	0.0003745891154	-24.35538673	-13.73381042	2.795754194	1.0
4	278.4151917	-0.0008942864952	0.0003745891154	-23.81653023	-12.05561924	2.432328463	1.0
[LeftHand]
1	283.2883911	-0.0001744071778	0.0003780452244	-72.43244171	1.983672023	12.05715275	1.0
2	283.2883911	-0.0001744071778	0.0003780452244	-73.89705658	3.011888981	13.70287323	1.0
3	283.2883911	-0.0001744071778	0.0003780452244	-74.2124176	3.404568911	13.79649734	1.0
4	283.2883911	-0.0001744071778	0.0003780452244	-74.30976868	3.67384553	13.60555363	1.0
[LeftHandThumb1]
1	24.66140366	-15.7504921	26.82413483	4.577283382	-1.921597958	11.7443943	1.0
2	24.66140366	-15.7504921	26.82413483	4.561786175	-1.919927478	11.72412586	1.0
3	24.66140366	-15.7504921	26.82413483	4.568153381	-1.920243263	11.73027515	1.0
4	24.66140366	-15.7504921	26.82413483	4.5785079	-1.920922518	11.74125957	1.0
[LeftHandThumb2]
1	32.29803848	-18.6469059	18.64681244	19.65663338	24.37822533	16.39330101	1.0
2	32.29803848	-18.6469059	18.64681244	19.65520477	24.39154816	16.39486122	1.0
3	32.29803848	-18.6469059	18.64681244	19.65557861	24.38726997	16.39396477	1.0
4	32.29803848	-18.6469059	18.64681244	19.65628052	24.37977409	16.39262009	1.0
[LeftHandThumb3]
1	26.52565002	-15.31492996	15.31471634	7.891359329	14.18873501	22.37347794	1.0
2	26.52565002	-15.31492996	15.31471634	7.883603096	14.19568157	22.3690815	1.0
3	26.52565002	-15.31492996	15.31471634	7.88603878	14.19312763	22.37035561	1.0
4	26.52565002	-15.31492996	15.31471634	7.890338898	14.18883991	22.37266922	1.0
[LeftHandThumb4]
1	19.54566956	-11.2850008	11.28492165	0	0	0	1.0
2	19.54566956	-11.2850008	11.28492165	0	0	0	1.0
3	19.54566956	-11.2850008	11.28492165	0	0	0	1.0
4	19.54566956	-11.2850008	11.28492165	0	0	0	1.0
[LeftHandIndex1]
1	91.09301758	-5.170834064	22.6007309	-1.059727907	6.970134735	-9.204906464	1.0
2	91.09301758	-5.170834064	22.6007309	-1.061139345	6.970200062	-9.239297867	1.0
3	91.09301758	-5.170834064	22.6007309	-1.060604334	6.969872952	-9.227407455	1.0
4	91.09301758	-5.170834064	22.6007309	-1.05971384	6.969477177	-9.20705986	1.0
[LeftHandIndex2]
1	36.76409531	-6.939138257e-05	0.0002924251603	1.721524358	1.491604567	-12.66356564	1.0
2	36.76409531	-6.939138257e-05	0.0002924251603	1.719756722	1.498722076	-12.71403503	1.0
3	36.76409531	-6.939138257e-05	0.0002924251603	1.720188498	1.496284723	-12.69723511	1.0
4	36.76409531	-6.939138257e-05	0.0002924251603	1.721023679	1.492100716	-12.66813183	1.0
[LeftHandIndex3]
1	28.83062553	0.000385119667	-0.0004276481632	0.7292284966	1.248386264	-11.48551655	1.0
2	28.83062553	0.000385119667	-0.0004276481632	0.7298823595	1.250114441	-11.49823666	1.0
3	28.83062553	0.000385119667	-0.0004276481632	0.7295820117	1.249453783	-11.4933424	1.0
4	28.83062553	0.000385119667	-0.0004276481632	0.7291076779	1.248356819	-11.48523331	1.0
[LeftHandIndex4]
1	23.92720032	0.0003702590766	0.0003355443478	0	0	0	1.0
2	23.92720032	0.0003702590766	0.0003355443478	0	0	0	1.0
3	23.92720032	0.0003702590766	0.0003355443478	0	0	0	1.0
4	23.92720032	0.0003702590766	0.0003355443478	0	0	0	1.0
[LeftHandMiddle1]
1	95.33401489	-0.000339240476	0.0001393702551	0.6144146919	3.510749102	-10.11486149	1.0
2	95.33401489	-0.000339240476	0.0001393702551	0.6097170115	3.516257763	-10.14799786	1.0
3	95.33401489	-0.000339240476	0.0001393702551	0.6112320423	3.514675617	-10.13677692	1.0
4	95.33401489	-0.000339240476	0.0001393702551	0.6138834953	3.511795282	-10.11744785	1.0
[LeftHandMiddle2]
1	36.98236847	1.961359158e-05	0.0001791696704	-1.206251621	0.8922777772	-8.963189125	1.0
2	36.98236847	1.961359158e-05	0.0001791696704	-1.210518956	0.8925302625	-9.024250031	1.0
3	36.98236847	1.961359158e-05	0.0001791696704	-1.208908439	0.8926000595	-9.004009247	1.0
4	36.98236847	1.961359158e-05	0.0001791696704	-1.206225157	0.8926353455	-8.968899727	1.0
[LeftHandMiddle3]
1	29.50921631	-0.0003937608562	0.0001644795993	0.05823552236	1.212196112	-11.43789482	1.0
2	29.50921631	-0.0003937608562	0.0001644795993	0.05839947984	1.215786457	-11.46876621	1.0
3	29.50921631	-0.0003937608562	0.0001644795993	0.0583271198	1.2144593	-11.45740223	1.0
4	29.50921631	-0.0003937608562	0.0001644795993	0.05821181834	1.212234378	-11.43832302	1.0
[LeftHandMiddle4]
1	28.3390255	-0.0003893481917	-9.504223272e-05	0	0	0	1.0
2	28.3390255	-0.0003893481917	-9.504223272e-05	0	0	0	1.0
3	28.3390255	-0.0003893481917	-9.504223272e-05	0	0	0	1.0
4	28.3390255	-0.0003893481917	-9.504223272e-05	0	0	0	1.0
[LeftHandRing1]
1	91.04527283	-0.4393950403	-18.65084648	-2.264460802	3.773019791	-9.796312332	1.0
2	91.04527283	-0.4393950403	-18.65084648	-2.26977849	3.781237125	-9.835849762	1.0
3	91.04527283	-0.4393950403	-18.65084648	-2.267879248	3.779084921	-9.8227005	1.0
4	91.04527283	-0.4393950403	-18.65084648	-2.264661312	3.77503252	-9.799919128	1.0
[LeftHandRing2]
1	31.54026794	-6.55346812e-05	0.000104257444	-5.211082935	0.9274203777	-19.86389542	1.0
2	31.54026794	-6.55346812e-05	0.000104257444	-5.211101532	0.9236969948	-19.92424011	1.0
3	31.54026794	-6.55346812e-05	0.000104257444	-5.210660458	0.9251731634	-19.90327072	1.0
4	31.54026794	-6.55346812e-05	0.000104257444	-5.210139275	0.9275981188	-19.86743546	1.0
[LeftHandRing3]
1	29.37672424	-0.0004545861739	-6.864757597e-05	-3.090353251	1.032019258	-13.12761021	1.0
2	29.37672424	-0.0004545861739	-6.864757597e-05	-3.096055031	1.030768394	-13.14906025	1.0
3	29.37672424	-0.0004545861739	-6.864757597e-05	-3.093732119	1.031190872	-13.14092159	1.0
4	29.37672424	-0.0004545861739	-6.864757597e-05	-3.089945793	1.031919479	-13.12738037	1.0
[LeftHandRing4]
1	26.47452545	-0.0004980441299	7.070515267e-07	0	0	0	1.0
2	26.47452545	-0.0004980441299	7.070515267e-07	0	0	0	1.0
3	26.47452545	-0.0004980441299	7.070515267e-07	0	0	0	1.0
4	26.47452545	-0.0004980441299	7.070515267e-07	0	0	0	1.0
[LeftHandPinky1]
1	80.77777863	-4.886682034	-38.06066895	-7.473874569	3.744529963	-10.42517567	1.0
2	80.77777863	-4.886682034	-38.06066895	-7.479411602	3.755659819	-10.47068691	1.0
3	80.77777863	-4.886682034	-38.06066895	-7.477070808	3.753008366	-10.45549297	1.0
4	80.77777863	-4.886682034	-38.06066895	-7.473294258	3.747829437	-10.42920113	1.0
[LeftHandPinky2]
1	36.00034332	-2.252215199e-05	-0.0002623879409	0.06529783458	0.7250183225	-13.19669819	1.0
2	36.00034332	-2.252215199e-05	-0.0002623879409	0.06740801781	0.729606092	-13.262187	1.0
3	36.00034332	-2.252215199e-05	-0.0002623879409	0.06660087407	0.728146553	-13.23998451	1.0
4	36.00034332	-2.252215199e-05	-0.0002623879409	0.06526196003	0.725579977	-13.20174885	1.0
[LeftHandPinky3]
1	21.14211655	0.0001953828178	-2.864415183e-05	-5.260994434	2.026751518	-17.17100334	1.0
2	21.14211655	0.0001953828178	-2.864415183e-05	-5.269594193	2.025807619	-17.18610954	1.0
3	21.14211655	0.0001953828178	-2.864415183e-05	-5.266027927	2.026023865	-17.1798439	1.0
4	21.14211655	0.0001953828178	-2.864415183e-05	-5.26024437	2.026453495	-17.16968155	1.0
[LeftHandPinky4]
1	19.7568264	0.0001240565616	-0.0004430140834	0	0	0	1.0
2	19.7568264	0.0001240565616	-0.0004430140834	0	0	0	1.0
3	19.7568264	0.0001240565616	-0.0004430140834	0	0	0	1.0
4	19.7568264	0.0001240565616	-0.0004430140834	0	0	0	1.0
[RightShoulder]
1	-45.69969559	109.4617615	-26.28017426	11.94306564	9.962675095	-20.67751503	1.0
2	-45.69969559	109.4617615	-26.28017426	11.90672493	9.57909584	-18.35590553	1.0
3	-45.69969559	109.4617615	-26.28017426	11.55492306	9.974705696	-14.83599758	1.0
4	-45.69969559	109.4617615	-26.28017426	11.1544981	10.50265598	-11.14384079	1.0
[RightArm]
1	-105.9284363	-5.247983932	-22.32098579	-57.6060791	1.941874504	-22.16235733	1.0
2	-105.9284363	-5.247983932	-22.32098579	-56.42318344	4.25177002	-23.56505966	1.0
3	-105.9284363	-5.247983932	-22.32098579	-55.49364471	6.850432396	-24.54581833	1.0
4	-105.9284363	-5.247983932	-22.32098579	-54.6324501	9.449215889	-25.43519211	1.0
[RightForeArm]
1	-278.4151917	-0.0003307921579	0.0001167631053	-18.43637085	11.57067585	-13.50834179	1.0
2	-278.4151917	-0.0003307921579	0.0001167631053	-18.27635765	9.92863369	-13.10897923	1.0
3	-278.4151917	-0.0003307921579	0.0001167631053	-19.76413918	8.339679718	-12.86202526	1.0
4	-278.4151917	-0.0003307921579	0.0001167631053	-21.54815865	6.792982578	-12.64719391	1.0
[RightHand]
1	-283.2883911	-1.581417109e-06	0.000558160129	-75.78686523	-1.003579974	-5.778960228	1.0
2	-283.2883911	-1.581417109e-06	0.000558160129	-77.50912476	-1.092161655	-5.709865093	1.0
3	-283.2883911	-1.581417109e-06	0.000558160129	-77.85163116	-1.94888413	-5.546451092	1.0
4	-283.2883911	-1.581417109e-06	0.000558160129	-77.92923737	-2.931242943	-5.36873436	1.0
[RightHandPinky1]
1	-80.76674652	-4.88459301	-38.06010437	-7.427873135	-3.412286997	9.817533493	1.0
2	-80.76674652	-4.88459301	-38.06010437	-7.407777309	-3.390527487	9.679585457	1.0
3	-80.76674652	-4.88459301	-38.06010437	-7.407995701	-3.390392065	9.68029213	1.0
4	-80.76674652	-4.88459301	-38.06010437	-7.411977768	-3.394267321	9.706702232	1.0
[RightHandPinky2]
1	-36.00034332	0.0003967665543	0.0005081442068	0.1009139344	-0.4553571641	13.30649471	1.0
2	-36.00034332	0.0003967665543	0.0005081442068	0.09273465723	-0.4460966289	13.10486603	1.0
3	-36.00034332	0.0003967665543	0.0005081442068	0.09279907495	-0.4461229742	13.10596943	1.0
4	-36.00034332	0.0003967665543	0.0005081442068	0.09439106286	-0.4478713572	13.14465523	1.0
[RightHandPinky3]
1	-21.14211655	0.0001513792522	0.0001479376951	-5.221697807	-1.671908855	17.23174858	1.0
2	-21.14211655	0.0001513792522	0.0001479376951	-5.190162659	-1.675074935	17.17563057	1.0
3	-21.14211655	0.0001513792522	0.0001479376951	-5.190479279	-1.675078869	17.17621422	1.0
4	-21.14211655	0.0001513792522	0.0001479376951	-5.196698189	-1.674496174	17.18730545	1.0
[RightHandPinky4]
1	-19.7568264	-0.000185219571	-9.839841368e-06	0	0	0	1.0
2	-19.7568264	-0.000185219571	-9.839841368e-06	0	0	0	1.0
3	-19.7568264	-0.000185219571	-9.839841368e-06	0	0	0	1.0
4	-19.7568264	-0.000185219571	-9.839841368e-06	0	0	0	1.0
[RightHandRing1]
1	-91.03588104	-0.4391434789	-18.65072441	-2.221517086	-3.448168993	9.18037796	1.0
2	-91.03588104	-0.4391434789	-18.65072441	-2.205022097	-3.430752277	9.061090469	1.0
3	-91.03588104	-0.4391434789	-18.65072441	-2.205136776	-3.430705786	9.061685562	1.0
4	-91.03588104	-0.4391434789	-18.65072441	-2.208329916	-3.433880806	9.084504128	1.0
[RightHandRing2]
1	-31.54026794	0.0002399729856	0.0004885121016	-5.139956951	-0.5137344003	19.96850586	1.0
2	-31.54026794	0.0002399729856	0.0004885121016	-5.137600899	-0.5307219028	19.77891159	1.0
3	-31.54026794	0.0002399729856	0.0004885121016	-5.137706757	-0.5305766463	19.78009605	1.0
4	-31.54026794	0.0002399729856	0.0004885121016	-5.138267994	-0.527256012	19.81664467	1.0
[RightHandRing3]
1	-29.37672424	-0.0004160065437	-0.0003966063377	-3.068055868	-0.7579461336	13.17881584	1.0
2	-29.37672424	-0.0004160065437	-0.0003966063377	-3.047607183	-0.763261199	13.1055336	1.0
3	-29.37672424	-0.0004160065437	-0.0003966063377	-3.047804356	-0.7632311583	13.10613155	1.0
4	-29.37672424	-0.0004160065437	-0.0003966063377	-3.051827431	-0.7622103691	13.12042332	1.0
[RightHandRing4]
1	-26.47452545	0.0002460821415	-2.294923434e-05	0	0	0	1.0
2	-26.47452545	0.0002460821415	-2.294923434e-05	0	0	0	1.0
3	-26.47452545	0.0002460821415	-2.294923434e-05	0	0	0	1.0
4	-26.47452545	0.0002460821415	-2.294923434e-05	0	0	0	1.0
[RightHandMiddle1]
1	-95.32502747	-0.0001631230261	0.0001679184206	0.6606611013	-3.17619276	9.484215736	1.0
2	-95.32502747	-0.0001631230261	0.0001679184206	0.673797667	-3.163738728	9.382580757	1.0
3	-95.32502747	-0.0001631230261	0.0001679184206	0.6737441421	-3.163745165	9.383135796	1.0
4	-95.32502747	-0.0001631230261	0.0001679184206	0.6712453365	-3.166061401	9.402633667	1.0
[RightHandMiddle2]
1	-36.98236847	0.000150669599	-0.0002254552383	-1.198035836	-0.7042585015	9.070022583	1.0
2	-36.98236847	0.000150669599	-0.0002254552383	-1.184150577	-0.7086222768	8.886435509	1.0
3	-36.98236847	0.000150669599	-0.0002254552383	-1.184263587	-0.7085694671	8.887345314	1.0
4	-36.98236847	0.000150669599	-0.0002254552383	-1.186970711	-0.7076982856	8.922457695	1.0
[RightHandMiddle3]
1	-29.50921631	-3.113244929e-06	-3.03402544e-06	0.08225079626	-0.9815802574	11.50746822	1.0
2	-29.50921631	-3.113244929e-06	-3.03402544e-06	0.08119775355	-0.9717559218	11.40474606	1.0
3	-29.50921631	-3.113244929e-06	-3.03402544e-06	0.08121317625	-0.9718307257	11.40551281	1.0
4	-29.50921631	-3.113244929e-06	-3.03402544e-06	0.08142643422	-0.9737402797	11.42546177	1.0
[RightHandMiddle4]
1	-28.3390255	8.05324089e-05	0.0005378770875	0	0	0	1.0
2	-28.3390255	8.05324089e-05	0.0005378770875	0	0	0	1.0
3	-28.3390255	8.05324089e-05	0.0005378770875	0	0	0	1.0
4	-28.3390255	8.05324089e-05	0.0005378770875	0	0	0	1.0
[RightHandIndex1]
1	-91.08280945	-5.167889595	22.60116386	-1.020038486	-6.645609379	8.646456718	1.0
2	-91.08280945	-5.167889595	22.60116386	-1.015820861	-6.644933224	8.539110184	1.0
3	-91.08280945	-5.167889595	22.60116386	-1.015861392	-6.645005703	8.539762497	1.0
4	-91.08280945	-5.167889595	22.60116386	-1.016690969	-6.645215988	8.560432434	1.0
[RightHandIndex2]
1	-36.76409531	0.0001922715601	0.0003235567128	1.748237491	-1.238497019	12.76628113	1.0
2	-36.76409531	0.0001922715601	0.0003235567128	1.751551509	-1.219547749	12.61337471	1.0
3	-36.76409531	0.0001922715601	0.0003235567128	1.751572132	-1.219663143	12.61415005	1.0
4	-36.76409531	0.0001922715601	0.0003235567128	1.750981808	-1.223312497	12.64341545	1.0
[RightHandIndex3]
1	-28.83062553	-0.0004960121587	0.0004044897505	0.7541433573	-1.012534738	11.52830791	1.0
2	-28.83062553	-0.0004960121587	0.0004044897505	0.7512494326	-1.007449746	11.48419666	1.0
3	-28.83062553	-0.0004960121587	0.0004044897505	0.7512790561	-1.00748992	11.48457909	1.0
4	-28.83062553	-0.0004960121587	0.0004044897505	0.7518505454	-1.008480072	11.49320602	1.0
[RightHandIndex4]
1	-23.92720032	0.0002681470069	0.0002802013478	0	0	0	1.0
2	-23.92720032	0.0002681470069	0.0002802013478	0	0	0	1.0
3	-23.92720032	0.0002681470069	0.0002802013478	0	0	0	1.0
4	-23.92720032	0.0002681470069	0.0002802013478	0	0	0	1.0
[RightHandThumb1]
1	-24.64805984	-15.72714233	26.82626534	3.484313965	3.564597368	-11.03925133	1.0
2	-24.64805984	-15.72714233	26.82626534	3.541515112	3.565556288	-11.09316444	1.0
3	-24.64805984	-15.72714233	26.82626534	3.540946007	3.565607548	-11.09303761	1.0
4	-24.64805984	-15.72714233	26.82626534	3.529671192	3.565490484	-11.08289051	1.0
[RightHandThumb2]
1	-32.29771805	-18.6470871	18.64718437	20.7383194	-26.07388115	-17.64455986	1.0
2	-32.29771805	-18.6470871	18.64718437	20.74144936	-26.03511429	-17.63611603	1.0
3	-32.29771805	-18.6470871	18.64718437	20.74146271	-26.03527451	-17.63624954	1.0
4	-32.29771805	-18.6470871	18.64718437	20.74089622	-26.04265213	-17.63797188	1.0
[RightHandThumb3]
1	-26.52605057	-15.31449318	15.31445599	11.82570839	-19.32633781	-24.79437065	1.0
2	-26.52605057	-15.31449318	15.31445599	11.84751129	-19.30265045	-24.80786133	1.0
3	-26.52605057	-15.31449318	15.31445599	11.84744167	-19.30282211	-24.80784416	1.0
4	-26.52605057	-15.31449318	15.31445599	11.84331608	-19.30741501	-24.80531883	1.0
[RightHandThumb4]
1	-19.54580498	-11.28461742	11.28507042	0	0	0	1.0
2	-19.54580498	-11.28461742	11.28507042	0	0	0	1.0
3	-19.54580498	-11.28461742	11.28507042	0	0	0	1.0
4	-19.54580498	-11.28461742	11.28507042	0	0	0	1.0
[LeftUpLeg]
1	82.07781982	-67.51714325	-15.99555588	-29.16282654	39.2716713	11.40808582	1.0
2	82.07781982	-67.51714325	-15.99555588	-29.29500771	38.46593475	11.43249702	1.0
3	82.07781982	-67.51714325	-15.99555588	-26.97327423	37.67433929	10.14966869	1.0
4	82.07781982	-67.51714325	-15.99555588	-24.1986618	36.87259293	8.617256165	1.0
[LeftLeg]
1	-4.110157988e-06	-443.7047119	2.846426487	77.20681	-11.89563274	-7.383247852	1.0
2	-4.110157988e-06	-443.7047119	2.846426487	79.4076004	-11.61420059	-7.828350067	1.0
3	-4.110157988e-06	-443.7047119	2.846426487	75.02687836	-12.15586185	-6.902318478	1.0
4	-4.110157988e-06	-443.7047119	2.846426487	69.36949921	-12.8404789	-5.711006641	1.0
[LeftFoot]
1	4.716393505e-06	-444.278717	-29.82190704	-42.09711838	-16.37643623	11.23428917	1.0
2	4.716393505e-06	-444.278717	-29.82190704	-43.04766846	-15.26371002	11.37684536	1.0
3	4.716393505e-06	-444.278717	-29.82190704	-40.21534348	-15.11220741	10.02702045	1.0
4	4.716393505e-06	-444.278717	-29.82190704	-36.68224335	-15.11865234	8.371667862	1.0
[LeftToeBase]
1	-2.960988058e-05	-87.28669739	107.1055984	1.272967339	0.03357969597	-1.141808152	1.0
2	-2.960988058e-05	-87.28669739	107.1055984	0.989149332	0.04334169254	-1.589087963	1.0
3	-2.960988058e-05	-87.28669739	107.1055984	0.700837791	0.03929679841	-1.768453717	1.0
4	-2.960988058e-05	-87.28669739	107.1055984	0.4047473371	0.03256652132	-1.882129073	1.0
[RightUpLeg]
1	-82.07795715	-67.51662445	-15.99559402	-39.31968307	-33.77330399	2.274296761	1.0
2	-82.07795715	-67.51662445	-15.99559402	-39.88482666	-33.83683395	1.42180407	1.0
3	-82.07795715	-67.51662445	-15.99559402	-37.59993744	-34.29213715	0.1819230914	1.0
4	-82.07795715	-67.51662445	-15.99559402	-34.78551483	-34.80661774	-1.110082388	1.0
[RightLeg]
1	8.435572454e-07	-443.7053833	2.861563921	72.23408508	8.182257652	-7.277297497	1.0
2	8.435572454e-07	-443.7053833	2.861563921	74.60326385	8.384683609	-7.223840714	1.0
3	8.435572454e-07	-443.7053833	2.861563921	70.81860352	8.337818146	-6.814578056	1.0
4	8.435572454e-07	-443.7053833	2.861563921	65.8377533	8.235648155	-6.357228279	1.0
[RightFoot]
1	9.644581951e-06	-444.2773132	-29.83789063	-28.29466057	7.018927097	7.012332439	1.0
2	9.644581951e-06	-444.2773132	-29.83789063	-28.93286324	7.365138531	6.912443161	1.0
3	9.644581951e-06	-444.2773132	-29.83789063	-27.11422729	7.029810429	6.608531952	1.0
4	9.644581951e-06	-444.2773132	-29.83789063	-24.81225777	6.563443184	6.278013706	1.0
[RightToeBase]
1	-2.360438157e-05	-87.28668976	107.1056061	0.5728881955	-2.827479148e-05	7.96769541e-07	1.0
2	-2.360438157e-05	-87.28668976	107.1056061	0.244388938	-2.486451081e-07	-5.373271051e-06	1.0
3	-2.360438157e-05	-87.28668976	107.1056061	0.3523584306	-6.224490221e-07	8.172857633e-06	1.0
4	-2.360438157e-05	-87.28668976	107.1056061	0.5384145975	-5.973422958e-06	2.310378659e-05	1.0
[EndOfFile]
